<svg xmlns="http://www.w3.org/2000/svg" width="286.909" height="248.423" viewBox="0 0 286.909 248.423"><path d="M199.83,248.423H87.076a4.926,4.926,0,0,1-4.926-4.915V233.082a23.069,23.069,0,0,1,23.068-23.018h15.455V192.979H14.026C6.292,192.979,0,186.169,0,177.8V15.172C0,6.806,6.292,0,14.026,0H272.88c7.734,0,14.026,6.806,14.026,15.172V155.194c0,.05,0,.1,0,.153s0,.1,0,.154v22.3c0,8.364-6.292,15.169-14.026,15.169l-106.646,0v17.086h15.457a23.069,23.069,0,0,1,23.068,23.018v10.425A4.929,4.929,0,0,1,199.83,248.423ZM105.224,219.9A13.214,13.214,0,0,0,92.01,233.08V238.6h102.9V233.08A13.214,13.214,0,0,0,181.7,219.9Zm25.3-26.918v17.086H156.38V192.979Zm30.782-9.833c.11,0,.222,0,.332.011H272.88c2.262,0,4.172-2.449,4.172-5.347V160.265H9.854v17.545c0,2.9,1.91,5.347,4.172,5.347H125.267c.109-.007.22-.011.331-.011s.222,0,.332.011h35.046C161.086,183.149,161.2,183.146,161.308,183.146ZM14.026,9.828c-2.262,0-4.172,2.449-4.172,5.347V150.433h267.2V15.176c0-2.9-1.911-5.347-4.172-5.347ZM262.139,176.621h-9.813a4.915,4.915,0,1,1,0-9.831h9.813a4.926,4.926,0,0,1,4.926,4.915,4.914,4.914,0,0,1-4.926,4.915Zm-33.545,0H218.78a4.915,4.915,0,1,1,0-9.831h9.815a4.915,4.915,0,1,1,0,9.831Zm-33.551,0h-9.814a4.915,4.915,0,1,1,0-9.831h9.814a4.915,4.915,0,1,1,0,9.831Zm23.48-34.257a4.916,4.916,0,0,1-4.657-6.528l9.059-26.116a4.927,4.927,0,1,1,9.312,3.221l-9.059,26.116A4.928,4.928,0,0,1,218.523,142.364Zm-159.178,0a4.916,4.916,0,0,1-4.653-6.528l9.05-26.108a4.926,4.926,0,1,1,9.311,3.221l-9.059,26.116A4.921,4.921,0,0,1,59.345,142.364Zm142.956-2.33a4.884,4.884,0,0,1-3.561-1.52l-10.252-10.724a4.9,4.9,0,0,1,0-6.784l10.252-10.725a4.919,4.919,0,0,1,7.124,6.784l-7.018,7.333,7.018,7.333a4.911,4.911,0,0,1-3.563,8.3Zm-159.18,0a4.883,4.883,0,0,1-3.561-1.52L29.306,127.791a4.9,4.9,0,0,1,0-6.784L39.56,110.282a4.918,4.918,0,1,1,7.122,6.784L39.665,124.4l7.017,7.333a4.911,4.911,0,0,1-3.561,8.3Zm200.672,0h0a4.914,4.914,0,0,1-3.56-8.306l7.018-7.333-7.018-7.332a4.919,4.919,0,0,1,7.124-6.784L257.606,121a4.907,4.907,0,0,1,0,6.785L247.352,138.51A4.862,4.862,0,0,1,243.794,140.032Zm-159.182,0h-.005a4.914,4.914,0,0,1-3.562-8.306l7.017-7.333-7.017-7.332a4.918,4.918,0,0,1,7.123-6.784L98.42,121a4.907,4.907,0,0,1,0,6.785L88.166,138.51A4.858,4.858,0,0,1,84.611,140.032Zm-20.057-41.6H60.277a8.228,8.228,0,0,1-7.659-5.143l-2.366-5.818-5.8,2.441a8.249,8.249,0,0,1-9.065-1.769l-3.024-3.018a8.2,8.2,0,0,1-1.773-9.045L33.038,70.3l-5.831-2.36A8.209,8.209,0,0,1,22.053,60.3V56.028a8.209,8.209,0,0,1,5.154-7.642l5.831-2.36-2.446-5.785A8.2,8.2,0,0,1,32.365,31.2l3.024-3.017a8.251,8.251,0,0,1,9.065-1.769l5.8,2.441,2.366-5.817a8.228,8.228,0,0,1,7.659-5.144h4.277a8.227,8.227,0,0,1,7.659,5.144l2.365,5.817,5.8-2.441a8.248,8.248,0,0,1,9.065,1.769L92.466,31.2a8.221,8.221,0,0,1,1.773,9.045l-2.447,5.785,5.83,2.36a8.209,8.209,0,0,1,5.156,7.642V60.3a8.209,8.209,0,0,1-5.156,7.642l-5.83,2.36,2.447,5.785a8.2,8.2,0,0,1-1.773,9.045l-3.024,3.018a8.272,8.272,0,0,1-9.065,1.769l-5.8-2.441-2.366,5.818A8.242,8.242,0,0,1,64.554,98.436ZM51.113,77.142a8.24,8.24,0,0,1,7.66,5.15l2.571,6.319H63.49l2.569-6.319a8.269,8.269,0,0,1,10.88-4.5l6.295,2.654,1.512-1.509-2.66-6.28a8.241,8.241,0,0,1,4.5-10.857l6.334-2.564V57.1l-6.334-2.565a8.241,8.241,0,0,1-4.5-10.856l2.66-6.28-1.512-1.509-6.295,2.654a8.266,8.266,0,0,1-10.88-4.5L63.49,27.73H61.344l-2.571,6.319a8.269,8.269,0,0,1-10.88,4.5L41.6,35.891,40.087,37.4l2.66,6.28a8.239,8.239,0,0,1-4.506,10.856L31.909,57.1v2.141L38.241,61.8a8.243,8.243,0,0,1,4.506,10.857l-2.66,6.28L41.6,80.451,47.893,77.8A8.246,8.246,0,0,1,51.113,77.142ZM259.935,87.19H124.279a4.915,4.915,0,1,1,0-9.831H259.936a4.915,4.915,0,1,1,0,9.831ZM62.419,74.921a16.753,16.753,0,1,1,16.79-16.754A16.791,16.791,0,0,1,62.419,74.921Zm0-23.682a6.922,6.922,0,1,0,6.937,6.922A6.938,6.938,0,0,0,62.419,51.239ZM259.935,63.087H124.279a4.916,4.916,0,1,1,0-9.832H259.936a4.916,4.916,0,1,1,0,9.832Zm0-24.109H124.279a4.916,4.916,0,1,1,0-9.832H259.936a4.916,4.916,0,1,1,0,9.832Z" fill="#575670"/></svg>