<svg xmlns="http://www.w3.org/2000/svg" width="279.283" height="264.807" viewBox="0 0 279.283 264.807"><path d="M114.828,264.807H99.782a3.174,3.174,0,0,1,0-6.347h13.079c5-10.5,5.018-20.528.047-31.544H22.791A22.813,22.813,0,0,1,0,204.128v-6.7c0-.047,0-.1,0-.156s0-.107,0-.157V63.536A22.813,22.813,0,0,1,22.791,40.749H45.259v-.63q0-.067,0-.135c0-.046,0-.091,0-.136v-26.9A12.964,12.964,0,0,1,58.209,0H221.145a12.964,12.964,0,0,1,12.949,12.949v27.8h22.4a22.813,22.813,0,0,1,22.787,22.787V204.128A22.813,22.813,0,0,1,256.5,226.915H166.462c-5.031,10.994-5.033,21.018,0,31.544H179.57a3.164,3.164,0,0,1,2.222,5.427,3.255,3.255,0,0,1-2.285.921h-64.68Zm4.959-37.893h0a43.565,43.565,0,0,1,3.18,15.915,41.345,41.345,0,0,1-3.152,15.629h39.7a41.32,41.32,0,0,1-3.127-15.629,43.618,43.618,0,0,1,3.2-15.915h-39.8Zm44.67-6.395a3.089,3.089,0,0,1,.534.047h91.5a16.458,16.458,0,0,0,16.439-16.44v-3.678H6.352v3.678a16.458,16.458,0,0,0,16.439,16.44h91.4a3.242,3.242,0,0,1,1.312,0h48.422A3.083,3.083,0,0,1,164.457,220.52ZM22.791,47.1A16.457,16.457,0,0,0,6.352,63.536V194.1H272.935V63.536A16.458,16.458,0,0,0,256.5,47.1h-22.4V78.506c0,.044,0,.089,0,.135s0,.086,0,.129V167a13.044,13.044,0,0,1-12.949,12.947l-162.936,0A12.964,12.964,0,0,1,45.259,167V79.276a3.324,3.324,0,0,1,0-1.272V47.1ZM51.607,81.815v85.18a6.608,6.608,0,0,0,6.6,6.6H221.145a6.608,6.608,0,0,0,6.6-6.6V81.815H128.433a30.6,30.6,0,0,1-60.86,0Zm46.14,9.077a17.641,17.641,0,0,0-14.052,7.4,24.257,24.257,0,0,0,28.683-.051A17.813,17.813,0,0,0,98.32,90.892h-.572ZM98,62.708a14.07,14.07,0,0,1,9.988,24,23.991,23.991,0,0,1,8.97,7.119,23.991,23.991,0,0,0,5.29-15.12,24.248,24.248,0,0,0-48.494-.252c0,.064.006.124.006.185s0,.136-.006.2a24,24,0,0,0,5.287,14.983A23.942,23.942,0,0,1,87.985,86.7,14.1,14.1,0,0,1,98,62.708Zm0,6.282a7.744,7.744,0,1,0,7.745,7.745A7.753,7.753,0,0,0,98,68.99Zm0-20.941a30.617,30.617,0,0,1,30.43,27.417h99.314V44.594a3.3,3.3,0,0,1,0-1.342v-.094H51.607v.687c0,.026,0,.051,0,.078s0,.051,0,.077V75.467H67.573A30.616,30.616,0,0,1,98,48.049ZM58.209,6.343a6.608,6.608,0,0,0-6.6,6.6V36.81h176.14V12.948a6.608,6.608,0,0,0-6.6-6.6ZM204.45,163.76H148.467a13.725,13.725,0,0,1-13.71-13.71v-17.9a13.725,13.725,0,0,1,13.71-13.71H204.45a13.725,13.725,0,0,1,13.71,13.71v17.9A13.725,13.725,0,0,1,204.45,163.76Zm-55.983-38.91a7.373,7.373,0,0,0-7.364,7.364v17.9a7.373,7.373,0,0,0,7.364,7.364H204.45a7.373,7.373,0,0,0,7.364-7.364v-17.9a7.373,7.373,0,0,0-7.364-7.364Zm-29.134,36.558H64.3a3.174,3.174,0,0,1,0-6.348h55.029a3.174,3.174,0,0,1,0,6.348Zm0-17.138H64.3a3.174,3.174,0,0,1,0-6.348l55.029,0a3.173,3.173,0,1,1,0,6.345Zm0-17.138H64.3a3.174,3.174,0,0,1,0-6.348h55.029a3.174,3.174,0,0,1,0,6.348Zm87.847-22.34H145.739a3.174,3.174,0,0,1,0-6.348H207.18a3.174,3.174,0,0,1,0,6.348ZM124.474,31.352a9.775,9.775,0,1,1,9.774-9.774A9.785,9.785,0,0,1,124.474,31.352Zm0-13.2a3.427,3.427,0,1,0,3.427,3.427A3.431,3.431,0,0,0,124.474,18.15ZM98.2,31.352a9.775,9.775,0,1,1,9.774-9.774A9.786,9.786,0,0,1,98.2,31.352Zm0-13.2a3.427,3.427,0,1,0,3.426,3.427A3.431,3.431,0,0,0,98.2,18.15Zm-26.278,13.2a9.775,9.775,0,1,1,9.774-9.774A9.785,9.785,0,0,1,71.918,31.352Zm0-13.2a3.427,3.427,0,1,0,3.427,3.427A3.431,3.431,0,0,0,71.918,18.15ZM208.827,30.274a3.14,3.14,0,0,1-3.174-3.174v-2.35h-2.343a3.174,3.174,0,1,1,0-6.347h2.343V16.121a3.174,3.174,0,1,1,6.348,0V18.4h2.289a3.174,3.174,0,0,1,0,6.347H212V27.1A3.216,3.216,0,0,1,208.827,30.274Zm-21.58-5.524H147.512a3.174,3.174,0,1,1,0-6.347h39.734a3.14,3.14,0,0,1,3.174,3.173A3.178,3.178,0,0,1,187.246,24.751Z" fill="#575670"/></svg>