<svg xmlns="http://www.w3.org/2000/svg" width="299.169" height="270.489" viewBox="0 0 299.169 270.489"><path d="M189.318,270.489H109.854a4.663,4.663,0,1,1,0-9.327h21.034v-9.327H14.028A14.008,14.008,0,0,1,.006,237.844V80.962a18.836,18.836,0,0,0,5.68,2.426,20.117,20.117,0,0,0,3.3,24.507l.374.375V237.846a4.7,4.7,0,0,0,4.674,4.664H285.142a4.7,4.7,0,0,0,4.674-4.664V108.269l.374-.373a20.121,20.121,0,0,0,3.294-24.508,18.85,18.85,0,0,0,5.681-2.426V237.844a14.026,14.026,0,0,1-14.024,13.991H168.283v9.327h21.035a4.663,4.663,0,1,1,0,9.327Zm-49.082-18.651v9.328h18.7v-9.328Zm9.478-20.986a4.636,4.636,0,0,1-2.162-.536L65.607,187.668a4.7,4.7,0,0,1-2.5-4.106,4.625,4.625,0,0,1,2.431-4.127l9.815-5.363-9.745-5.058a4.7,4.7,0,0,1-2.5-4.106,4.627,4.627,0,0,1,2.431-4.127l9.815-5.362-9.745-5.059a4.712,4.712,0,0,1-2.5-4.174,4.634,4.634,0,0,1,2.575-4.129l81.9-41.3a4.7,4.7,0,0,1,4.207.023l81.708,41.273a4.621,4.621,0,0,1,2.571,4.129,4.707,4.707,0,0,1-2.5,4.173l-9.443,4.918,9.606,5.551a4.674,4.674,0,0,1-.163,8.187l-9.442,4.917,9.6,5.551a4.674,4.674,0,0,1-.163,8.186l-81.687,42.647A4.636,4.636,0,0,1,149.714,230.851ZM85.33,179.276h0l-7.641,4.149,72.007,37.5,72.006-37.61-7.384-4.268-62.45,32.62a4.616,4.616,0,0,1-4.323,0L85.33,179.276Zm64.346-69.116L78.016,146.279,149.7,183.611l71.472-37.332ZM252.421,221.522a14.008,14.008,0,1,1,9.916-4.1A13.947,13.947,0,0,1,252.421,221.522Zm-205.673,0a14.008,14.008,0,1,1,9.916-4.1A13.946,13.946,0,0,1,46.748,221.522Zm195.1-100.258c-.112,0-.226,0-.338-.005h-6.219c-.112,0-.225.005-.338.005a10.575,10.575,0,0,1-10.576-10.194v-4.314a49.524,49.524,0,0,1-8.741-3.614l-3.061,3.054a10.609,10.609,0,0,1-7.222,2.825c-.115,0-.232,0-.346-.006a10.564,10.564,0,0,1-7.366-3.308l-4.418-4.408a10.579,10.579,0,0,1-.49-14.9l3.061-3.054a50.012,50.012,0,0,1-3.622-8.721h-4.324A10.572,10.572,0,0,1,177.63,63.734v-6.2a10.573,10.573,0,0,1,10.213-10.888h4.324a49.925,49.925,0,0,1,3.622-8.721l-3.061-3.054a10.559,10.559,0,0,1,.49-14.9l4.418-4.407A10.546,10.546,0,0,1,205,12.241c.115,0,.231-.006.346-.006a10.58,10.58,0,0,1,7.222,2.834l3.061,3.054a50.291,50.291,0,0,1,8.741-3.615V10.2A10.574,10.574,0,0,1,234.947,0c.113,0,.227,0,.341.005h6.219c.113,0,.228-.005.341-.005A10.575,10.575,0,0,1,252.42,10.2v4.313a50.289,50.289,0,0,1,8.741,3.615l3.061-3.054a10.58,10.58,0,0,1,7.222-2.834c.115,0,.232,0,.346.006a10.545,10.545,0,0,1,7.366,3.317l4.418,4.407a10.56,10.56,0,0,1,.491,14.9L281,37.92a49.864,49.864,0,0,1,3.623,8.721h4.324a10.571,10.571,0,0,1,10.212,10.888v6.2a10.57,10.57,0,0,1-10.212,10.888h-4.324A50.053,50.053,0,0,1,281,83.344l3.061,3.054a10.557,10.557,0,0,1-.491,14.9l-4.395,4.408a10.566,10.566,0,0,1-7.366,3.308c-.115,0-.231.006-.347.006a10.61,10.61,0,0,1-7.222-2.825l-3.084-3.079a47.15,47.15,0,0,1-8.741,3.639v4.314a10.577,10.577,0,0,1-10.576,10.194ZM238.4,35.892a24.766,24.766,0,1,0,17.535,7.245A24.67,24.67,0,0,0,238.4,35.892ZM57.321,121.263a10.575,10.575,0,0,1-10.573-10.195v-4.313a49.565,49.565,0,0,1-8.741-3.615l-3.061,3.054a10.6,10.6,0,0,1-7.219,2.825c-.116,0-.234,0-.35-.006a10.561,10.561,0,0,1-7.366-3.307L15.593,101.3A10.579,10.579,0,0,1,15.1,86.4l3.061-3.054a50.1,50.1,0,0,1-3.622-8.721H10.217A10.571,10.571,0,0,1,.006,63.734v-6.2A10.57,10.57,0,0,1,10.217,46.641h4.324a49.915,49.915,0,0,1,3.622-8.721L15.1,34.866a10.559,10.559,0,0,1,.491-14.9l4.418-4.408a10.545,10.545,0,0,1,7.366-3.316c.116,0,.233-.006.349-.006a10.58,10.58,0,0,1,7.22,2.833l3.061,3.054a50.3,50.3,0,0,1,8.741-3.614V10.194A10.577,10.577,0,0,1,57.325,0c.112,0,.226,0,.337.005h6.219c.112,0,.225-.005.338-.005A10.577,10.577,0,0,1,74.795,10.194v4.314a50.3,50.3,0,0,1,8.741,3.614L86.6,15.068a10.58,10.58,0,0,1,7.22-2.833c.116,0,.234,0,.349.006a10.546,10.546,0,0,1,7.366,3.316l4.418,4.408a10.559,10.559,0,0,1,.491,14.9l-3.062,3.054A49.807,49.807,0,0,1,107,46.641h4.324a10.57,10.57,0,0,1,10.212,10.888v6.2a10.571,10.571,0,0,1-10.212,10.888H107a50.071,50.071,0,0,1-3.623,8.721l3.062,3.054a10.559,10.559,0,0,1-.491,14.9l-4.4,4.407a10.558,10.558,0,0,1-7.366,3.308c-.116,0-.233.006-.35.006a10.6,10.6,0,0,1-7.218-2.825l-3.085-3.079a47.214,47.214,0,0,1-8.741,3.639v4.313a10.575,10.575,0,0,1-10.573,10.194c-.112,0-.227,0-.34-.005H57.662C57.548,121.261,57.433,121.263,57.321,121.263Zm3.451-85.37A24.781,24.781,0,1,0,78.3,43.142,24.67,24.67,0,0,0,60.772,35.892Zm110.611,38.73h-43.6a20.6,20.6,0,0,0,3.038-9.327h37.525a20.623,20.623,0,0,0,3.035,9.326Z" fill="#575670"/></svg>