<svg xmlns="http://www.w3.org/2000/svg" xmlns:xlink="http://www.w3.org/1999/xlink" width="867" height="539" viewBox="0 0 867 539"><defs><style>.a{fill:#fff;}.b{fill:#b696fa;}.c{fill:url(#a);}.d{fill:url(#b);}.e,.f,.j{fill:none;}.e{stroke:#b696fa;stroke-width:4px;}.g{fill:#5db87c;}.h{clip-path:url(#f);}.i,.k{stroke:none;}.k{fill:#5db87c;}</style><linearGradient id="a" x1="0.5" x2="0.5" y2="1" gradientUnits="objectBoundingBox"><stop offset="0" stop-color="#b696fa"/><stop offset="1" stop-color="#9382ff"/></linearGradient><linearGradient id="b" x1="0.5" x2="0.5" y2="1" gradientUnits="objectBoundingBox"><stop offset="0" stop-color="#735dfe"/><stop offset="1" stop-color="#9382ff"/></linearGradient><clipPath id="f"><circle class="a" cx="55.5" cy="55.5" r="55.5" transform="translate(2007 -331)"/></clipPath></defs><g transform="translate(-901 -255)"><g transform="translate(1645 713)"><circle class="b" cx="40.5" cy="40.5" r="40.5"/></g><g transform="translate(952 645)"><circle class="c" cx="54" cy="54" r="54"/></g><path class="d" d="M30.5,61A30.508,30.508,0,0,1,18.628,2.4,30.508,30.508,0,0,1,42.372,58.6,30.31,30.31,0,0,1,30.5,61Zm0-56.793A26.293,26.293,0,1,0,56.793,30.5,26.323,26.323,0,0,0,30.5,4.207Z" transform="translate(1707 477)"/><g class="e" transform="translate(1226 480)"><circle class="i" cx="30" cy="30" r="30"/><circle class="j" cx="30" cy="30" r="28"/></g><circle class="d" cx="25" cy="25" r="25" transform="translate(1449 459)"/><ellipse class="d" cx="29.5" cy="30" rx="29.5" ry="30" transform="translate(1224 273)"/><g class="f" transform="translate(901 438.831)"><path class="i" d="M51.792,0l51.792,89.856H0Z"/><path class="k" d="M 51.79186248779297 14.01750183105469 L 12.11426544189453 82.85572814941406 L 91.46945953369141 82.85572814941406 L 51.79186248779297 14.01750183105469 M 51.79186248779297 -7.62939453125e-06 L 103.5837249755859 89.85572814941406 L 0 89.85572814941406 L 51.79186248779297 -7.62939453125e-06 Z"/></g><path class="g" d="M34.415,59.709,68.831,0H0Z" transform="translate(1515.867 294.064)"/><path class="d" d="M30.5,61A30.508,30.508,0,0,1,18.628,2.4,30.508,30.508,0,0,1,42.372,58.6,30.31,30.31,0,0,1,30.5,61Zm0-56.793A26.293,26.293,0,1,0,56.793,30.5,26.323,26.323,0,0,0,30.5,4.207Z" transform="translate(1707 477)"/><g class="h" transform="translate(-1003 608)"><line class="e" y2="261" transform="translate(1997.5 -402.5)"/><line class="e" y2="261" transform="translate(2009.5 -402.5)"/><line class="e" y2="261" transform="translate(2021.5 -402.5)"/><line class="e" y2="261" transform="translate(2033.5 -402.5)"/><path class="e" d="M0,0V261" transform="translate(2045.5 -402.5)"/><line class="e" y2="261" transform="translate(2057.5 -402.5)"/><line class="e" y2="261" transform="translate(2069.5 -402.5)"/><line class="e" y2="261" transform="translate(2081.5 -402.5)"/><line class="e" y2="261" transform="translate(2093.5 -402.5)"/><line class="e" y2="261" transform="translate(2105.5 -402.5)"/><line class="e" y2="261" transform="translate(2117.5 -402.5)"/><line class="e" y2="261" transform="translate(2129.5 -402.5)"/></g><g class="h" transform="translate(-365 586)"><line class="e" y2="261" transform="translate(1997.5 -402.5)"/><line class="e" y2="261" transform="translate(2009.5 -402.5)"/><line class="e" y2="261" transform="translate(2021.5 -402.5)"/><line class="e" y2="261" transform="translate(2033.5 -402.5)"/><path class="e" d="M0,0V261" transform="translate(2045.5 -402.5)"/><line class="e" y2="261" transform="translate(2057.5 -402.5)"/><line class="e" y2="261" transform="translate(2069.5 -402.5)"/><line class="e" y2="261" transform="translate(2081.5 -402.5)"/><line class="e" y2="261" transform="translate(2093.5 -402.5)"/><line class="e" y2="261" transform="translate(2105.5 -402.5)"/><line class="e" y2="261" transform="translate(2117.5 -402.5)"/><line class="e" y2="261" transform="translate(2129.5 -402.5)"/></g></g></svg>